ply
format ascii 1.0
comment Created in Blender version 4.3.2
element vertex 6
property float x
property float y
property float z
property float nx
property float ny
property float nz
property float texture_u
property float texture_v
element face 2
property list uchar uint vertex_indices
end_header
-1.3780404 -0.232307 1.55859 0 1 0 1 0
-1.3780404 -0.232307 2.17435 0 1 0 1 1
1.3007796 -0.232307 2.17435 0 1 0 0 1
1.3007796 -0.232307 1.55859 0 1 0 0 0
-1.3780404 -0.232307 1.55859 0 1 0 1 0
1.3007796 -0.232307 2.17435 0 1 0 0 1
3 0 1 2
3 3 4 5
