ply
format ascii 1.0
comment Created in Blender version 4.3.2
element vertex 4
property float x
property float y
property float z
property float nx
property float ny
property float nz
property float texture_u
property float texture_v
element face 2
property list uchar uint vertex_indices
end_header
4.51013 1.7150853 1.55859 -0.7071069 0.7071067 0 0 1
2.74156 -0.053484917 1.55859 -0.7071068 0.70710677 0 0 0
2.74156 -0.053484917 2.17435 -0.7071069 0.7071067 0 1 0
4.51013 1.7150853 2.17435 -0.7071069 0.70710677 0 1 1
3 0 1 2
3 0 2 3
