ply
format ascii 1.0
comment VCGLIB generated
element vertex 4
property float x
property float y
property float z
property float nx
property float ny
property float nz
property float texture_u
property float texture_v
element face 2
property list uchar int vertex_indices
end_header
-4.566197 1.715085 1.55859 0.7071069 0.7071066 0 0 1
-2.797627 -0.05348492 1.55859 0.7071069 0.7071066 0 0 0
-2.797627 -0.05348492 2.17435 0.7071069 0.7071066 0 1 0
-4.566197 1.715085 2.17435 0.7071069 0.7071066 0 1 1
3 1 0 2 
3 2 0 3 
